ModelForces
version=1
nRows=4
nColumns=157
inDegrees=no

This file contains the forces exerted on a model during a simulation.

A force is a generalized force, meaning that it can be either a force (N) or a torque (Nm).

Units are S.I. units (second, meters, Newtons, ...)
Angles are in degrees.

endheader
time	glut_med1_r	glut_med2_r	glut_med3_r	glut_min1_r	glut_min2_r	glut_min3_r	semimem_r	semiten_r	bifemlh_r	bifemsh_r	sar_r	add_long_r	add_brev_r	add_mag1_r	add_mag2_r	add_mag3_r	tfl_r	pect_r	grac_r	glut_max1_r	glut_max2_r	glut_max3_r	iliacus_r	psoas_r	quad_fem_r	gem_r	peri_r	rect_fem_r	vas_med_r	vas_int_r	vas_lat_r	med_gas_r	lat_gas_r	soleus_r	tib_post_r	flex_dig_r	flex_hal_r	tib_ant_r	per_brev_r	per_long_r	per_tert_r	ext_dig_r	ext_hal_r	glut_med1_l	glut_med2_l	glut_med3_l	glut_min1_l	glut_min2_l	glut_min3_l	semimem_l	semiten_l	bifemlh_l	bifemsh_l	sar_l	add_long_l	add_brev_l	add_mag1_l	add_mag2_l	add_mag3_l	tfl_l	pect_l	grac_l	glut_max1_l	glut_max2_l	glut_max3_l	iliacus_l	psoas_l	quad_fem_l	gem_l	peri_l	rect_fem_l	vas_med_l	vas_int_l	vas_lat_l	med_gas_l	lat_gas_l	soleus_l	tib_post_l	flex_dig_l	flex_hal_l	tib_ant_l	per_brev_l	per_long_l	per_tert_l	ext_dig_l	ext_hal_l	ercspn_r	ercspn_l	intobl_r	intobl_l	extobl_r	extobl_l	femur_lat_meniscii_r.femur_lat_r.force.X	femur_lat_meniscii_r.femur_lat_r.force.Y	femur_lat_meniscii_r.femur_lat_r.force.Z	femur_lat_meniscii_r.femur_lat_r.torque.X	femur_lat_meniscii_r.femur_lat_r.torque.Y	femur_lat_meniscii_r.femur_lat_r.torque.Z	femur_lat_meniscii_r.meniscus_lat_r.force.X	femur_lat_meniscii_r.meniscus_lat_r.force.Y	femur_lat_meniscii_r.meniscus_lat_r.force.Z	femur_lat_meniscii_r.meniscus_lat_r.torque.X	femur_lat_meniscii_r.meniscus_lat_r.torque.Y	femur_lat_meniscii_r.meniscus_lat_r.torque.Z	femur_med_meniscii_r.femur_med_r.force.X	femur_med_meniscii_r.femur_med_r.force.Y	femur_med_meniscii_r.femur_med_r.force.Z	femur_med_meniscii_r.femur_med_r.torque.X	femur_med_meniscii_r.femur_med_r.torque.Y	femur_med_meniscii_r.femur_med_r.torque.Z	femur_med_meniscii_r.meniscus_med_r.force.X	femur_med_meniscii_r.meniscus_med_r.force.Y	femur_med_meniscii_r.meniscus_med_r.force.Z	femur_med_meniscii_r.meniscus_med_r.torque.X	femur_med_meniscii_r.meniscus_med_r.torque.Y	femur_med_meniscii_r.meniscus_med_r.torque.Z	femur_med_tibia_r.tibia_upper_r.force.X	femur_med_tibia_r.tibia_upper_r.force.Y	femur_med_tibia_r.tibia_upper_r.force.Z	femur_med_tibia_r.tibia_upper_r.torque.X	femur_med_tibia_r.tibia_upper_r.torque.Y	femur_med_tibia_r.tibia_upper_r.torque.Z	femur_med_tibia_r.femur_med_r.force.X	femur_med_tibia_r.femur_med_r.force.Y	femur_med_tibia_r.femur_med_r.force.Z	femur_med_tibia_r.femur_med_r.torque.X	femur_med_tibia_r.femur_med_r.torque.Y	femur_med_tibia_r.femur_med_r.torque.Z	femur_lat_tibia_r.tibia_upper_r.force.X	femur_lat_tibia_r.tibia_upper_r.force.Y	femur_lat_tibia_r.tibia_upper_r.force.Z	femur_lat_tibia_r.tibia_upper_r.torque.X	femur_lat_tibia_r.tibia_upper_r.torque.Y	femur_lat_tibia_r.tibia_upper_r.torque.Z	femur_lat_tibia_r.femur_lat_r.force.X	femur_lat_tibia_r.femur_lat_r.force.Y	femur_lat_tibia_r.femur_lat_r.force.Z	femur_lat_tibia_r.femur_lat_r.torque.X	femur_lat_tibia_r.femur_lat_r.torque.Y	femur_lat_tibia_r.femur_lat_r.torque.Z	aACL_R	pACL_R	aPCL_R	pPCL_R	aMCL_R	mMCL_R	pMCL_R	aLCL_R	mLCL_R	pLCL_R	ground_prescribedForce_fx	ground_prescribedForce_fy	ground_prescribedForce_fz	ground_prescribedForce_px	ground_prescribedForce_py	ground_prescribedForce_pz
      0.49440286	      7.59976534	      5.70145195	      6.10340404	      2.67497570	      3.19629597	      3.21461445	      0.00000000	      3.15930795	      3.52711438	      5.16935595	      1.47776440	      5.64906270	      4.16581504	      2.93717988	      2.46943586	      4.01574756	      2.87827779	      2.25230468	      1.37086825	      3.67909059	      5.59108813	      4.17408823	     22.71232996	     13.03963521	      3.64902934	      2.86477855	      4.13192828	    244.75270630	     43.03101621	     86.13475952	     62.34244040	      0.00000000	      0.00000000	     11.83367072	     11.53271009	      2.08192183	      2.75950335	     12.05850356	      3.92559969	      7.91537038	      8.22910001	      7.25305502	      1.96280565	      7.59976534	      5.70145195	      6.10340404	      2.67497570	      3.19629597	      3.21461445	      8.82077041	      4.11099548	      7.74571523	      7.26052786	      1.52886909	      5.64906270	      4.16581504	      2.93717988	      2.46943586	      4.01574756	      4.11451555	      2.25230468	      1.56822485	      3.67909059	      5.59108813	      4.17408823	     22.71232996	     13.03963521	      3.64902934	      2.86477855	      4.13192828	     10.75271494	      6.63517166	      7.61201728	      8.18470225	     14.14350153	      6.56730628	     31.40451219	     42.48358291	      2.76841953	      2.94427821	      8.51615923	      4.37265467	     12.54065401	      2.01717579	      5.32323475	      1.69098894	     25.15778606	     25.15778606	      9.05942859	      9.05942859	     26.85799071	     26.85799071	    204.57489149	      1.90685080	     37.72855647	    -15.30503941	      5.03711488	     83.10829140	   -204.57489149	     -1.90685080	    -37.72855647	      0.16085004	     -6.97514361	     -0.89426788	     67.16692409	    -46.34950464	    -13.61320454	      4.66023993	     -1.22214472	     27.07137063	    -67.16692409	     46.34950464	     13.61320454	      0.61082865	      1.32474893	     -1.41350238	   -633.45940210	     37.50228811	    104.10839476	      0.14728967	     11.17405981	     -3.08050622	    633.45940210	    -37.50228811	   -104.10839476	     41.50522205	    -10.89638355	    256.41993900	    -46.90268263	     -7.82976773	    -13.91620957	      0.29103733	     -1.75763337	      0.00819869	     46.90268263	      7.82976773	     13.91620957	     -5.84682314	      1.16364259	     19.05101909	     43.26614467	     13.04068487	    831.52387767	    362.96350262	     40.03931181	      0.22221817	      0.00000000	      0.00000000	      0.00000000	      0.00000000	      0.00000000	   -110.00000000	      0.00000000	      0.03000000	     -0.03000000	      0.00000000
      0.49581226	      7.59878929	      5.70077960	      6.10267537	      2.67467364	      3.19596921	      3.21420243	      0.00000000	      3.16028972	      3.52890134	      5.17118859	      1.47674883	      5.64838877	      4.16534889	      2.93683605	      2.46913990	      4.01521443	      2.87654382	      2.25204873	      1.37117516	      3.67865709	      5.59042733	      4.17358586	     22.71111080	     13.03826406	      3.64860832	      2.86458145	      4.13114574	    244.84608281	     43.07792842	     86.22363386	     62.39194323	      0.00000000	      0.00000000	     11.81321331	     11.52866034	      2.07420500	      2.74227340	     12.06030314	      3.92324049	      7.91464867	      8.24212844	      7.25049087	      1.97757677	      7.59878929	      5.70077960	      6.10267537	      2.67467364	      3.19596921	      3.21420243	      8.81934904	      4.11047255	      7.74453245	      7.25968964	      1.52869723	      5.64838877	      4.16534889	      2.93683605	      2.46913990	      4.01521443	      4.11418581	      2.25204873	      1.56804551	      3.67865709	      5.59042733	      4.17358586	     22.71111080	     13.03826406	      3.64860832	      2.86458145	      4.13114574	     10.75110513	      6.63437133	      7.61108139	      8.18370105	     14.14003753	      6.56569532	     31.39857838	     42.48125763	      2.76720621	      2.94341881	      8.51494779	      4.37192906	     12.53891107	      2.01696309	      5.32272859	      1.69084474	     25.15493870	     25.15493870	      9.05831199	      9.05831199	     26.85698772	     26.85698772	    197.63746332	      1.96960705	     37.10713929	    -15.05646047	      4.86961658	     80.28636553	   -197.63746332	     -1.96960705	    -37.10713929	      0.16211515	     -6.76049129	     -0.85677429	     64.55707702	    -45.21236998	    -13.24637150	      4.53394049	     -1.17705794	     26.02503308	    -64.55707702	     45.21236998	     13.24637150	      0.59464803	      1.28034282	     -1.38304489	   -625.46140952	     36.90687527	    102.95562625	      0.14334793	     11.03821212	     -3.03818985	    625.46140952	    -36.90687527	   -102.95562625	     41.04871603	    -10.75888129	    253.18223822	    -46.38980200	     -7.74916603	    -13.77303213	      0.28803726	     -1.73874257	      0.00831057	     46.38980200	      7.74916603	     13.77303213	     -5.78666440	      1.15101923	     18.84262852	     43.63063728	     13.48715467	    832.09203609	    364.55386416	     41.26414003	      1.49650579	      0.00000000	      0.00000000	      0.00000000	      0.00000000	      0.00000000	   -110.00000000	      0.00000000	      0.03000000	     -0.03000000	      0.00000000
      0.49722167	      7.59783080	      5.70011936	      6.10195981	      2.67437701	      3.19564833	      3.21379783	      0.00000000	      3.15914758	      3.52733943	      5.16950892	      1.47773413	      5.64772697	      4.16489112	      2.93649841	      2.46884926	      4.01469090	      2.87792818	      2.25179739	      1.37079884	      3.67823139	      5.58977842	      4.17309253	     22.70991358	     13.03691761	      3.64819487	      2.86438790	      4.13037713	    244.73817049	     43.02909869	     86.12898975	     62.34331202	      0.00000000	      0.00000000	     11.81386115	     11.52738752	      2.06766552	      2.72588877	     12.05524796	      3.92161941	      7.91483001	      8.25013878	      7.24395772	      1.99062718	      7.59783080	      5.70011936	      6.10195981	      2.67437701	      3.19564833	      3.21379783	      8.81795321	      4.10995903	      7.74337094	      7.25886650	      1.52852847	      5.64772697	      4.16489112	      2.93649841	      2.46884926	      4.01469090	      4.11386202	      2.25179739	      1.56786940	      3.67823139	      5.58977842	      4.17309253	     22.70991358	     13.03691761	      3.64819487	      2.86438790	      4.13037713	     10.74952428	      6.63358541	      7.61016236	      8.18271788	     14.13663291	      6.56411199	     31.39275028	     42.47897398	      2.76599976	      2.94256687	      8.51375816	      4.37121647	     12.53719881	      2.01675422	      5.32224087	      1.69070592	     25.15214258	     25.15214258	      9.05721548	      9.05721548	     26.85600278	     26.85600278	    205.14060745	      1.89888891	     37.79357233	    -15.33106387	      5.05097429	     83.33816180	   -205.14060745	     -1.89888891	    -37.79357233	      0.16075512	     -6.99287467	     -0.89732296	     67.36465544	    -46.43115526	    -13.65660234	      4.67600565	     -1.22576021	     27.15058268	    -67.36465544	     46.43115526	     13.65660234	      0.61221878	      1.32887926	     -1.41566919	   -634.52548879	     37.57886357	    104.21189939	      0.14796366	     11.19173552	     -3.08630220	    634.52548879	    -37.57886357	   -104.21189939	     41.54578006	    -10.91451180	    256.85123227	    -46.57522106	     -7.77865184	    -13.82232764	      0.28911122	     -1.74543755	      0.00827003	     46.57522106	      7.77865184	     13.82232764	     -5.80741252	      1.15558543	     18.91794586	     43.22611586	     12.99990598	    831.56510987	    362.89428455	     39.95665554	      0.14118599	      0.00000000	      0.00000000	      0.00000000	      0.00000000	      0.00000000	   -110.00000000	      0.00000000	      0.03000000	     -0.03000000	      0.00000000
      0.49863107	      7.59688958	      5.69947101	      6.10125714	      2.67408571	      3.19533323	      3.21340051	      0.00000000	      3.16027248	      3.52945572	      5.17113611	      1.47652667	      5.64707708	      4.16444160	      2.93616684	      2.46856386	      4.01417680	      2.87584123	      2.25155057	      1.37108788	      3.67781335	      5.58914120	      4.17260808	     22.70873792	     13.03559540	      3.64778887	      2.86419783	      4.12962220	    244.84580109	     43.08310613	     86.23099174	     62.40081129	      0.00000000	      0.00000000	     11.79048645	     11.52430443	      2.06168789	      2.70922770	     12.05824811	      3.91875488	      7.91315374	      8.26351862	      7.23834467	      2.00369815	      7.59688958	      5.69947101	      6.10125714	      2.67408571	      3.19533323	      3.21340051	      8.81658248	      4.10945475	      7.74223033	      7.25805817	      1.52836274	      5.64707708	      4.16444160	      2.93616684	      2.46856386	      4.01417680	      4.11354405	      2.25155057	      1.56769645	      3.67781335	      5.58914120	      4.17260808	     22.70873792	     13.03559540	      3.64778887	      2.86419783	      4.12962220	     10.74797188	      6.63281364	      7.60925987	      8.18175241	     14.13328669	      6.56255580	     31.38702603	     42.47673120	      2.76480005	      2.94172228	      8.51258994	      4.37051667	     12.53551668	      2.01654912	      5.32177120	      1.69057239	     25.14939677	     25.14939677	      9.05613872	      9.05613872	     26.85503557	     26.85503557	    197.09520189	      1.97612220	     37.06023832	    -15.03774191	      4.85664847	     80.06556870	   -197.09520189	     -1.97612220	    -37.06023832	      0.16228321	     -6.74356271	     -0.85371142	     64.30288764	    -45.15974825	    -13.20910528	      4.51987138	     -1.17253576	     25.92367231	    -64.30288764	     45.15974825	     13.20910528	      0.59404008	      1.27594561	     -1.38231966	   -625.15966254	     36.87636545	    102.86322204	      0.14325738	     11.03248599	     -3.03649581	    625.15966254	    -36.87636545	   -102.86322204	     41.01181405	    -10.75344972	    253.05978120	    -46.03979914	     -7.69457355	    -13.67314285	      0.28598310	     -1.72573156	      0.00839151	     46.03979914	      7.69457355	     13.67314285	     -5.74472775	      1.14240588	     18.70039784	     43.64874871	     13.51829803	    832.21428808	    364.73640273	     41.37624087	      1.61857250	      0.00000000	      0.00000000	      0.00000000	      0.00000000	      0.00000000	   -110.00000000	      0.00000000	      0.03000000	     -0.03000000	      0.00000000
